<svg xmlns="http://www.w3.org/2000/svg" width="1400" height="900" viewBox="0 0 1400 900">
  <rect width="1400" height="900" fill="#f4f1ea"/>
  <text x="60" y="80" font-family="Georgia, serif" font-size="36" fill="#182026">Executive Overview</text>
  <text x="60" y="120" font-family="Arial, sans-serif" font-size="18" fill="#44515c">Reference layout artifact for the Core Trio dashboard package</text>
  <rect x="60" y="170" width="180" height="110" fill="#ffffff" stroke="#182026"/>
  <rect x="260" y="170" width="180" height="110" fill="#ffffff" stroke="#182026"/>
  <rect x="460" y="170" width="180" height="110" fill="#ffffff" stroke="#182026"/>
  <rect x="660" y="170" width="180" height="110" fill="#ffffff" stroke="#182026"/>
  <rect x="860" y="170" width="180" height="110" fill="#ffffff" stroke="#182026"/>
  <rect x="1060" y="170" width="180" height="110" fill="#ffffff" stroke="#182026"/>
  <text x="90" y="235" font-family="Arial, sans-serif" font-size="18" fill="#182026">GMV</text>
  <text x="290" y="235" font-family="Arial, sans-serif" font-size="18" fill="#182026">Orders</text>
  <text x="490" y="235" font-family="Arial, sans-serif" font-size="18" fill="#182026">AOV</text>
  <text x="690" y="235" font-family="Arial, sans-serif" font-size="18" fill="#182026">Cancel Rate</text>
  <text x="890" y="235" font-family="Arial, sans-serif" font-size="18" fill="#182026">Late Rate</text>
  <text x="1090" y="235" font-family="Arial, sans-serif" font-size="18" fill="#182026">Review / New CX</text>
  <rect x="60" y="330" width="620" height="220" fill="#ffffff" stroke="#182026"/>
  <rect x="720" y="330" width="620" height="220" fill="#ffffff" stroke="#182026"/>
  <rect x="60" y="590" width="620" height="220" fill="#ffffff" stroke="#182026"/>
  <rect x="720" y="590" width="620" height="220" fill="#ffffff" stroke="#182026"/>
  <text x="90" y="380" font-family="Arial, sans-serif" font-size="22" fill="#182026">GMV and Orders Trend</text>
  <text x="750" y="380" font-family="Arial, sans-serif" font-size="22" fill="#182026">Cancellation vs Late Delivery</text>
  <text x="90" y="640" font-family="Arial, sans-serif" font-size="22" fill="#182026">New Customers Trend</text>
  <text x="750" y="640" font-family="Arial, sans-serif" font-size="22" fill="#182026">Review Score Trend</text>
</svg>
